<svg xmlns="http://www.w3.org/2000/svg" viewBox="0 0 1600 900" role="img" aria-label="Winter halfpipe placeholder">
  <defs>
    <linearGradient id="sky" x1="0" x2="0" y1="0" y2="1">
      <stop offset="0%" stop-color="#8dd6ff"/>
      <stop offset="100%" stop-color="#2f6da0"/>
    </linearGradient>
    <linearGradient id="snow" x1="0" x2="0" y1="0" y2="1">
      <stop offset="0%" stop-color="#eef7ff"/>
      <stop offset="100%" stop-color="#c8dff2"/>
    </linearGradient>
  </defs>
  <rect width="1600" height="900" fill="url(#sky)"/>
  <path d="M0 520L210 430L460 520L700 400L980 540L1210 420L1600 530V900H0Z" fill="#244e74" opacity="0.45"/>
  <path d="M0 610L180 560L430 640L760 520L1040 650L1310 560L1600 640V900H0Z" fill="#17354f" opacity="0.55"/>
  <path d="M220 760C220 650 300 560 400 560H1200C1300 560 1380 650 1380 760V900H220Z" fill="url(#snow)"/>
  <path d="M270 760C270 676 332 610 410 610H1190C1268 610 1330 676 1330 760" fill="none" stroke="#ffffff" stroke-opacity="0.7" stroke-width="14"/>
  <path d="M355 760C355 707 391 665 438 665H1162C1209 665 1245 707 1245 760" fill="none" stroke="#ffffff" stroke-opacity="0.55" stroke-width="10"/>
</svg>
